<svg width="1156" height="248" viewBox="0 0 1156 248" fill="none" xmlns="http://www.w3.org/2000/svg">
<path d="M166.048 219.973L113.442 247.999L112.011 246.925V224.022C99.8437 240.842 86.2449 247.999 66.2046 247.999C26.4818 247.999 0 216.865 0 171.058C0 120.242 33.2812 79.8034 74.4354 79.8034C88.7499 79.8034 98.4122 83.7399 112.011 95.1915V39.3649C112.011 24.6925 108.79 21.1139 95.5493 21.1139C92.6864 21.1139 90.5393 21.1139 87.6764 21.4718V15.7459C110.58 9.6623 123.105 6.08367 140.282 0L142.072 0.715716V203.624C142.072 220.086 145.731 219.973 157.817 214.605C159.857 213.699 157.817 214.605 166.048 211.46V219.973ZM112.011 207.918V125.61C112.011 106.643 94.8336 89.8235 75.509 89.8235C48.3115 89.8235 30.7762 116.305 30.7762 156.744C30.7762 200.761 50.1008 229.39 80.1613 229.39C91.255 229.39 100.202 225.454 106.643 217.938C109.864 214.36 112.011 210.423 112.011 207.918Z" fill="#4E6B3F"/>
<path d="M215.326 80.5204V113.444C233.219 87.6777 243.239 79.8047 258.27 79.8047C270.437 79.8047 277.952 86.9619 277.952 98.7714C277.952 108.792 272.584 114.875 263.995 114.875C259.343 114.875 255.407 113.086 249.681 107.718C245.744 104.139 242.524 102.35 240.377 102.35C230.356 102.35 215.326 120.243 215.326 131.695V212.214C215.326 232.612 221.41 237.98 245.744 239.054V244.422H159.857V239.054C182.761 234.759 185.266 232.254 185.266 214.361V124.895C185.266 109.149 182.045 103.424 173.098 103.424C168.804 103.424 165.583 103.781 160.573 104.855V99.1293C181.687 92.3299 194.57 87.3198 213.537 79.8047L215.326 80.5204Z" fill="#4E6B3F"/>
<path d="M408.403 185.412L414.129 187.917C400.172 226.924 376.647 248 340.861 248C298.633 248 272.867 216.15 272.867 166.765C272.867 116.307 301.854 79.8047 346.945 79.8047C369.132 79.8047 385.236 88.3934 396.688 104.497C403.845 114.517 407.424 125.969 408.855 145.294H298.633C300.423 172.491 302.212 186.448 315.095 203.625C325.115 216.866 338.356 223.308 354.818 223.308C378.795 223.308 390.868 211.894 408.403 185.412ZM299.349 133.842H372.353C368.417 104.855 360.901 92.6877 337.282 92.6877C317.242 92.6877 303.286 107.002 299.349 133.842Z" fill="#4E6B3F"/>
<path d="M568.479 220.803V230.823C557.743 244.422 548.439 248 536.272 248C523.031 248 515.158 240.843 513.368 221.876H513.011C494.044 243.348 476.509 248 461.12 248C438.933 248 423.545 234.401 423.545 210.782C423.545 192.174 434.639 178.217 448.595 168.912C459.331 161.755 472.572 154.956 513.011 139.926V120.601C513.011 98.4135 501.201 88.3934 485.097 88.3934C470.783 88.3934 460.047 96.2664 460.047 105.929C460.047 112.37 462.194 113.444 462.194 120.959C462.194 127.758 455.037 135.631 445.732 135.631C438.217 135.631 430.344 128.832 430.344 119.17C430.344 109.865 436.07 98.4135 448.595 90.5406C458.615 84.099 473.646 79.8047 489.75 79.8047C509.79 79.8047 523.389 85.5305 531.977 95.9085C540.566 106.287 541.998 113.802 541.998 135.631V203.983C541.998 220.445 546.65 227.602 553.091 227.602C558.817 227.602 562.396 225.813 568.479 220.803ZM513.011 198.973V148.514C490.823 156.387 476.151 163.902 467.204 172.133C458.615 180.006 455.037 188.595 455.037 199.689C455.037 218.655 465.773 227.244 479.729 227.244C486.887 227.244 494.402 225.455 500.485 221.518C510.863 214.361 513.011 209.351 513.011 198.973Z" fill="#4E6B3F"/>
<path d="M845.842 244.422H767.828V239.054C787.869 236.906 791.089 232.97 791.089 212.214V138.494C791.089 110.223 783.932 98.4135 763.534 98.4135C746.714 98.4135 735.979 104.855 725.243 120.243V210.425C725.243 233.686 730.611 238.696 751.009 239.054V244.422H670.848V239.054C691.246 237.622 695.182 235.475 695.182 213.645V138.136C695.182 113.444 687.309 98.4135 671.921 98.4135C658.68 98.4135 641.145 105.213 633.988 113.802C631.483 116.665 629.335 119.17 629.335 119.885V219.371C629.335 234.759 634.703 238.338 653.67 239.054V244.422H574.225V239.054C594.265 238.696 599.275 233.686 599.275 212.93V124.18C599.275 106.644 596.054 100.561 586.75 100.561C582.813 100.561 579.95 100.919 575.298 101.992V95.9085C594.981 90.5406 606.79 86.6041 625.041 79.8047L627.904 80.8783V107.36H628.62C652.239 83.0254 667.269 79.8047 683.373 79.8047C702.697 79.8047 714.865 89.467 721.306 109.865C740.631 89.1091 758.882 79.8047 779.638 79.8047C808.625 79.8047 821.15 101.992 821.15 144.22V216.866C821.15 232.97 825.802 237.622 836.538 238.338L845.842 239.054V244.422Z" fill="#4E6B3F"/>
<path d="M1155.83 161.755C1155.83 211.498 1123.62 248 1075.31 248C1032.01 248 998.01 212.572 998.01 162.829C998.01 113.086 1030.22 79.8047 1078.53 79.8047C1122.19 79.8047 1155.83 112.37 1155.83 161.755ZM1123.62 171.418C1123.62 147.083 1117.18 122.39 1105.73 107.718C1097.14 96.9821 1087.12 89.8248 1071.73 89.8248C1047.04 89.8248 1030.22 110.939 1030.22 146.725C1030.22 174.996 1035.94 200.762 1049.18 220.087C1057.06 231.538 1068.51 237.98 1081.39 237.98C1107.87 237.98 1123.62 212.93 1123.62 171.418Z" fill="#4E6B3F"/>
<path d="M998.248 247.999H951.355L949.923 246.925V224.022C937.756 240.842 924.157 247.999 904.117 247.999C864.394 247.999 837.912 216.865 837.912 171.058C837.912 120.242 871.193 79.8034 912.348 79.8034C926.662 79.8034 936.324 83.7399 949.923 95.1915V39.3649C949.923 24.6925 946.702 21.1139 933.461 21.1139C930.599 21.1139 928.451 21.1139 925.588 21.4718V15.7459C948.492 9.6623 961.017 6.08367 978.194 0L979.984 0.715716V203.624C979.984 220.086 976.792 238.148 990.017 238.148C992.296 238.148 992.296 238.148 998.248 238.148V247.999ZM949.923 207.918V125.61C949.923 106.643 932.746 89.8235 913.421 89.8235C886.224 89.8235 868.688 116.305 868.688 156.744C868.688 200.761 888.013 229.39 918.073 229.39C929.167 229.39 938.114 225.454 944.555 217.938C947.776 214.36 949.923 210.423 949.923 207.918Z" fill="#4E6B3F"/>
</svg>
